<svg width="45" height="39" viewBox="0 0 45 39" fill="none" xmlns="http://www.w3.org/2000/svg">
<path d="M14 4C14 1.79086 15.7909 0 18 0H41C43.2091 0 45 1.79086 45 4V17H14V4Z" fill="#FFA3A3"/>
<path d="M45 17H0C2.0376 37.9326 11.1953 38.9449 23.0866 39C34.8304 38.9854 44.1321 37.9077 45 17Z" fill="#FFA3A3"/>
<path d="M25 8C25 9.10457 24.1046 10 23 10C21.8954 10 21 9.10457 21 8C21 6.89543 21.8954 6 23 6C24.1046 6 25 6.89543 25 8Z" fill="black"/>
<path d="M38 8C38 9.10457 37.1046 10 36 10C34.8954 10 34 9.10457 34 8C34 6.89543 34.8954 6 36 6C37.1046 6 38 6.89543 38 8Z" fill="black"/>
<path d="M23.5 6.75C23.5 7.16421 23.1642 7.5 22.75 7.5C22.3358 7.5 22 7.16421 22 6.75C22 6.33579 22.3358 6 22.75 6C23.1642 6 23.5 6.33579 23.5 6.75Z" fill="white"/>
<path d="M36.5 6.75C36.5 7.16421 36.1642 7.5 35.75 7.5C35.3358 7.5 35 7.16421 35 6.75C35 6.33579 35.3358 6 35.75 6C36.1642 6 36.5 6.33579 36.5 6.75Z" fill="white"/>
<path d="M36.3965 13.6133C36.6098 13.5564 36.8296 13.6832 36.8867 13.8965C36.9436 14.1098 36.8168 14.3296 36.6035 14.3867L29.1035 16.3867L29.0029 16.4131L28.9033 16.3877L20.9033 14.3877C20.6891 14.3341 20.5589 14.1176 20.6123 13.9033C20.6659 13.6891 20.8824 13.5589 21.0967 13.6123L28.9951 15.5869L36.3965 13.6133Z" fill="black"/>
</svg>
